<?xml version="1.0" encoding="utf-8"?>
<!-- Generator: Adobe Illustrator 27.2.0, SVG Export Plug-In . SVG Version: 6.00 Build 0)  -->
<svg version="1.1" id="Layer_1"
	xmlns="http://www.w3.org/2000/svg"
	xmlns:xlink="http://www.w3.org/1999/xlink" x="0px" y="0px" viewBox="0 0 550 200" style="enable-background:new 0 0 550 200;" xml:space="preserve">
	<style type="text/css">
	.st0{fill:#056BD1;}
	</style>
	<path d="M103.1,59.9c4.2-2.2,26.3-15.2,33.5,5c-8.3-4.1-16.7-3.1-30.5,4.8C103.3,71.3,100.1,61.5,103.1,59.9z M77.3,69.7
	c-4.3,0-7.8,5.5-7.8,12.2s3.5,12.2,7.8,12.2s7.8-5.5,7.8-12.2S81.6,69.7,77.3,69.7z M112.4,69.7c-4.3,0-7.8,5.5-7.8,12.2
	s3.5,12.2,7.8,12.2s7.8-5.5,7.8-12.2S116.7,69.7,112.4,69.7z M199.2,120.8l-6.4,0.7c-0.1,0-5.4,0.9-5.1,5.5c0.3,4,0,18.3-14.3,35
	c-12.1,14-29.9,16.6-44,17.3c-1.1,0.1-2.4,0.1-3.8,0.1c-3.9,0-8.1-0.2-12.3-0.5c-1.5-0.1-3-0.2-4.4-0.3c-0.8-0.1-1.5-0.1-2.3-0.2
	c-4.3-0.3-8.1-0.6-10.3-0.6c-0.2,0-0.4,0-0.5,0c-0.5,0-0.6,0-0.7,0c-1.1,0.2-2.3,0.6-3.3,1.1c-1.2,0.6-2.2,1.3-2.8,2
	c0.1,0,0.1,0.1,0.2,0.1c3.7,3.3,2.4,5.8,2,6.7c-1.4,2.9-5.1,2.9-6.4,2.9c-1.6,0-3.4-0.2-5.2-0.4c-0.1,0-0.3,0-0.4,0
	c-1-0.1-2-0.2-3-0.3c-0.5,0-1-0.1-1.5-0.1c-0.2,0-0.3,0-0.5,0s-0.4,0-0.6,0c-0.8,0-1.6,0.2-2.4,0.3c-1.3,0.2-2.5,0.6-3.6,1
	c-1.5,0.6-2.9,1.2-4.1,1.8c-0.1,0-0.1,0.1-0.2,0.1c-2.1,1-3.7,1.8-5.4,1.8s-3.2-0.8-4.1-2.2c-2.7-4,1.8-8.9,3.7-10.9
	c0-0.1,0.1-0.1,0.1-0.2c1-1,2.1-2.1,3.2-3c1.3-1.2,2.7-2.3,3.9-3.3c0.7-0.6,1.4-1.1,2-1.5c0.2-0.2,0.5-0.3,0.7-0.5
	c3.4-2.3,9.3-5.5,16.2-7.7c1.2-0.4,2.5-0.7,3.8-1c2.8-0.6,5.6-1.1,8.5-1.2c0.4,0,0.9,0,1.4,0c0.6,0,1.2,0,1.9,0c0.5,0,1.1,0,1.7,0
	c1,0,2.1,0,3.2,0c1.6,0,3.3,0,5,0.1c0.4,0,0.8,0,1.2,0c1.2,0,2.2,0,3.3,0c3-0.1,5.5-0.2,7.7-0.4c8.3-0.9,15.5-3,19-4.7
	c3.4-1.6,9.8-6.4,13.8-13c2.2-3.7,3.7-8.2,4.5-12.2c-14.6,9.6-31.7,16.7-45.3,16.7c1.5-1.9,3.1-4.2,3.3-6.8
	c-2.8,1.2-9.5,6.5-21.4,6.5s-18.6-5.3-21.4-6.5c0.2,2.6,1.8,4.9,3.3,6.8C47.3,149.8,1,116.4,1,96.4c0-8.1,7.3-16.3,7.3-18.5
	c0-2.2-4.3-8.9-3-16s11.5-10,12.5-11c1.1-1.1-1.8-7.5,0-13.2s13.5-11.1,14.7-12.3c1.2-1.2,1.2-18.1,21.5-20c0.4,0,0.8-0.1,1.2-0.1
	C61.7,4.8,67.6,5.6,72.7,7c12.2,3.2,20.4,9.4,22.2,9.4c2.5,0,18-12.5,39.6-11.2C156,6.5,156,24.1,157.2,25.3
	c1.2,1.2,12.9,6.6,14.7,12.3s-1.1,12.1,0,13.2c1.1,1.1,11.2,3.9,12.5,11s-3,13.8-3,16c0,2.2,7.3,10.4,7.3,18.5c0,3.3-1.3,7-3.6,10.9
	c2.9,2,6.1,4.7,9.7,8.8L199.2,120.8z M24.1,74.6c-2.2-1.9-4.6-3.2-6.4-4.8c-0.9-0.8-1.6-1.7-1.8-2.6c-0.3-3.6,3.6-6.6,6.2-8.9
	c-3.6,1.7-8.3,4.4-8.4,9.1c0.7,6.7,11.4,8.3,10.8,15.2c-0.3,2.2-2.1,3.9-3.8,5.4c-2.9,2.6-7.4,5.1-8.4,9.4s1.8,8.6,4.9,11.2
	c-2.9-3.9-5.1-9.7-0.9-13.4c2.8-2.6,6.9-4.6,9.5-7.8C29.4,83.3,28,77.8,24.1,74.6z M61.9,190.1l-2.8-5.2c-2.1,2.4-3.4,4.6-2.6,5.9
	c0.3,0.5,0.8,0.7,1.3,0.7C58.8,191.6,60.2,190.9,61.9,190.1z M69.8,187.1l-3.8-8.6c-1.2,1-2.5,2-3.7,3.1l3.6,6.6
	C67.1,187.8,68.4,187.4,69.8,187.1z M82.4,169.6c-5.8,2-10.7,4.8-13.6,6.9l4.5,10.2c0.1,0,0.1,0,0.2,0c0.2,0,0.5,0,0.8,0
	c0.9,0,1.9,0.1,3,0.2L82.4,169.6z M96.1,166.7C96.1,166.7,96,166.7,96.1,166.7c-3.4,0.1-6.7,0.8-9.9,1.6L80.6,187
	c1.5,0.1,3,0.3,4.2,0.3c1.8,0,3.1-0.2,3.5-1c1.1-2.3-3.7-3.1-2.7-5.9c0.9-2.4,4.4-4.6,7.7-5.5L96.1,166.7z M108.9,166.8
	c-3.4,0-6.6-0.1-9.3-0.1l-2.7,7.9c2.7,0,7.1,0.4,12,0.8V166.8z M164,87.4c2.6,3.2,6.6,5.2,9.5,7.8c2.3,1.9,2.7,4.5,2.1,7
	c0.3,0.1,0.5,0.2,0.8,0.3c0.2,0.1,0.4,0.2,0.6,0.3c0.7-1.7,1-3.6,0.5-5.4c-1-4.3-5.5-6.8-8.4-9.4c-1.7-1.5-3.6-3.2-3.8-5.4
	c-0.6-6.8,10.1-8.5,10.8-15.2c0-4.7-4.8-7.4-8.4-9.1c2.6,2.3,6.5,5.3,6.2,8.9c-0.2,0.9-0.9,1.8-1.8,2.6c-1.8,1.6-4.2,3-6.4,4.8
	C161.8,77.8,160.5,83.3,164,87.4z M59.3,36c1.8-8.7,10.3-13.1,18.2-15.1c2.7-0.7,5.5-1.3,8.4-1.8C75,17.4,58.7,22.9,59.3,36z
	 M133.1,125.4l-11.6-0.2h-0.4c-5.1,0-17.5,1.2-24.6,2.7l-6.4,1.3l2.6-5.9c6.7-15.1,21.5-21.7,23.6-22.6c1.5-0.8,9.1-4.6,23-5.2
	c1,0,2-0.1,3.1-0.1c2.2,0,4.6,0.1,7,0.3c0.7-3.5,1.1-7.1,1.1-10.8c0-30.7-24.9-55.6-55.6-55.6c-7.8,0-15.3,1.6-22.1,4.6
	c1.1,3.6,2.4,7.1,3.1,10.8c0.4,3.4-0.2,6.9-1.6,10c5.6,1.5,10.5,4.3,12.3,5.2c3,1.6-0.2,11.4-3,9.8c-7-4-12.5-6.2-17.4-6.9
	c-2.4,1.2-3.8,3.5-2.5,6.4c-1.8-1.5-2.3-4.3-1.6-6.6c-3.2,0.1-6.1,0.9-9,2.3c2.9-8,8.1-10.8,13.5-11.1c0.2-1.4,0.1-2.9-0.3-4.1
	c-0.3-0.9-0.6-2-1.3-2.6l-0.4-0.5c-1.2-1.8-2.6-3.6-3.9-5.4c-13,10.2-21.4,26-21.4,43.8c0,30.7,24.9,55.6,55.6,55.6
	C109.7,140.6,123.1,134.8,133.1,125.4z M143.5,112c-1.8-0.3-3.8-0.5-5.9-0.5c-0.7,0-1.4,0-2.1,0.1c-8.3,0.5-14.2,2.6-15.6,4.5
	c0.1,0.4,0.8,1.5,3.2,2.9l10.4,6C137.4,121.2,140.8,116.8,143.5,112z M192.5,118.3c-3.4-3.8-6.4-6.4-9-8.2c-2-1.4-3.8-2.3-5.4-3.1
	c0,0,0,0-0.1,0c-0.3-0.1-0.6-0.3-0.9-0.4c-0.1,0-0.1-0.1-0.2-0.1c-0.2-0.1-0.5-0.2-0.7-0.3c-0.1,0-0.2-0.1-0.3-0.1
	c-0.2-0.1-0.4-0.2-0.6-0.2c-0.5-0.2-1-0.4-1.5-0.6c-2.3-1-5.8-2.8-12.2-4.2c-0.6-0.1-1.2-0.3-1.8-0.4c-0.2,0-0.4-0.1-0.6-0.1
	c-0.4-0.1-0.9-0.2-1.3-0.2c-0.4-0.1-0.8-0.1-1.2-0.2s-0.8-0.1-1.2-0.2s-0.9-0.1-1.4-0.2c-0.1,0-0.3,0-0.5-0.1
	c-1.6-0.2-3.3-0.4-5-0.5l0,0c-2.1-0.1-4.2-0.2-6.2-0.2c-1,0-2,0-2.9,0.1c-14.7,0.6-21.7,4.9-21.7,4.9s-15.4,6-22,20.9
	c7.1-1.4,19.7-2.8,25.2-2.8c0.1,0,0.3,0,0.4,0c-4.2-2.4-5.9-5.4-4.3-7.7c2.5-3.6,10.9-5.5,18.2-5.9c0.7,0,1.5-0.1,2.3-0.1
	c2.4,0,5,0.2,7.5,0.7l0,0l0,0c0.5,0.1,1.1,0.2,1.6,0.4h0.1c0.5,0.1,1,0.3,1.5,0.4c0.2,0,0.3,0.1,0.4,0.2c0.4,0.1,0.7,0.2,1.1,0.4
	c0.5,0.2,1,0.4,1.4,0.6c6.6,3.3,11.1,9.9,11.1,16c0,0.3,0,0.6,0,0.9c0,0.2,0,0.4,0,0.6c0,0.1,0,0.2,0,0.3c0,0.3,0,0.6-0.1,0.9
	c0,0,0,0,0,0.1c0,0.3-0.1,0.6-0.1,1l0,0l0,0c-0.6,4.9-2.2,11.3-5.4,16.5c-4.4,7.2-11.3,12.4-15.2,14.3c-3.7,1.8-11.1,4-20.1,5
	c-2.5,0.3-5.3,0.4-8,0.4v8.9c4.2,0.3,8.5,0.5,12.3,0.5c1.3,0,2.5,0,3.6-0.1c11.4-0.6,29.8-2.4,41.6-16.2
	c11.9-13.8,14-26.3,13.5-32.6C184,121,190,118.5,192.5,118.3z"/>
	<path class="st0" d="M369.2,22l39.6,99.3l-19.5,2.7l-9.2-24h-38.7l-9,24H313l39.8-102H369.2z M360.5,48.7l-13.4,35.5h27L360.5,48.7z
	"/>
	<path d="M253.4,93.1L229,61.8V124h-19.4V22h12.3l34.5,47.1L287.8,22h11.8v102H280V65.2l-19,26.8L253.4,93.1z M441,22v63.5
	c0,8.5,2,14.7,6.2,18.5c4.1,3.9,9.4,5.8,15.9,5.8c6.6,0,11.9-2,16-6c4-4,6.1-10.1,6.1-18.3V22h19.6v65c0,11-3.8,20.2-11.3,27.6
	c-7.6,7.4-17.8,11.1-30.7,11.1c-12.7,0-22.8-3.7-30.2-11.1c-7.5-7.4-11.2-16.6-11.2-27.6V22H441z M548.6,22v102h-19.4V22H548.6z"/>
</svg>
