<?xml version="1.0" encoding="utf-8"?>
<!-- Generator: Adobe Illustrator 27.2.0, SVG Export Plug-In . SVG Version: 6.00 Build 0)  -->
<svg version="1.1" id="Layer_1"
	xmlns="http://www.w3.org/2000/svg"
	xmlns:xlink="http://www.w3.org/1999/xlink" x="0px" y="0px" viewBox="0 0 325 80" style="enable-background:new 0 0 325 80;" xml:space="preserve">
	<path d="M101.8,35.9L54.4,5.2L37.2,20.6l-1.9-2.1L54.1,1.7l49.2,31.8L101.8,35.9z M14.2,26.7c0.5-6.9,1.9-12.1,3.1-15.4
	c0.5,0.7,1,1.4,1.6,2.1c7.3,9.3,16.8,16.5,30,22.6c9.4,4.3,32.7,11.3,49.4,12.8c5.4,0.5,10.2,0.7,14.4,0.8c0.2,1.9,0.2,3.9,0,6
	c-0.7,0-1.4,0.1-2,0.1c-14.4,0.4-37.5-2.2-47.6-5.5C49.2,45.8,38,41.6,27.9,35.8c-6-3.5-6.8-4-11-7.2C16.1,28.1,15.3,27.5,14.2,26.7
	z M7,36.5c-1.7,2.1-3.7,4.2-5.1,5.8c0.4,3.7,1.5,7.5,3.1,11.2c1.1-1.3,2.5-3,3.5-4.4c1.9-2.6,4.2-6.5,4.7-7.4
	c-0.2-1.9-0.4-3.8-0.5-5.8c-0.1-2.3-0.1-4.6-0.1-6.6C11.3,31.1,9,34,7,36.5z M14.1,35.8c0.1,1.9,0.3,3.8,0.4,5.6
	c1.1,0.9,6.6,5,13.1,8.3C38,55,49.5,58.5,63.5,62.2c10.5,2.8,34,3.4,47.8,0.1c0.1-0.4,0.2-0.9,0.3-1.3c0.3-1.3,0.6-2.6,0.7-3.9
	c-0.6,0-1.2,0.1-1.8,0.1c-1.1,0-2.2,0-3.3,0c-14.6,0-35.3-2.5-44.7-5.6c-13.9-4.5-25.2-8.7-35.4-14.5c-6.1-3.5-6.9-4.1-11.2-7.2
	c-0.6-0.4-1.2-0.9-2-1.5C14,30.7,14,33.2,14.1,35.8z M13,60.9c1.5-2.2,2.4-4,2.7-4.6c-0.9-3.7-1.7-7.9-2.3-12.4
	c-1,1.6-2.5,4.1-3.8,5.9c-1.2,1.6-2.8,3.5-4,5c1.5,3,3.4,5.9,5.5,8.6C11.7,62.7,12.4,61.8,13,60.9z M80.8,72.8c-0.8,0-1.6,0-2.4,0
	c-15.1-0.4-23.5-2.5-28.6-3.8c-1-0.3-1.9-0.5-2.7-0.6c-8.8-1.9-25-8.6-29.7-10.6c1.9,7.4,4.1,12.9,5.5,16
	c17.3,3.8,33.9,4.7,44.8,4.7c9.3,0,18.2-0.6,25.6-1.7c6.2-0.9,11.1-2.2,13.7-3.5c0.6-1.1,1.1-2.1,1.5-3.2
	C100,71.4,89.8,72.8,80.8,72.8z M16.2,58.4c-0.5,0.9-1.2,2-2,3.3c-0.7,1.1-1.4,2-2.1,2.8c2.6,2.9,5.5,5.6,8.8,8
	C19.6,69.3,17.8,64.5,16.2,58.4z M47.4,66.9c0.8,0.2,1.7,0.4,2.8,0.7c5,1.2,13.4,3.3,28.3,3.7c9.8,0.3,21.3-1.3,30.8-3
	c0.6-1.5,1.2-3,1.6-4.5c-6.5,1.4-15,2.1-23.2,2.1c-9.6,0-18.9-0.9-24.6-2.4C49.1,59.9,37.5,56.3,27.1,51c-5.4-2.7-10.1-6-12.3-7.6
	C15.3,48,16.1,52.2,17,56C19.7,57.1,38.1,65,47.4,66.9z M5.9,35.6c2.9-3.4,6.2-7.9,6.9-8.8c0.5-6.6,1.7-11.7,2.9-15.1
	c-1.9,1.4-4.1,3.4-6.3,6.2C6.6,21.3,3.1,27.1,2,34.7c-0.3,1.8-0.4,3.7-0.3,5.7C3,38.9,4.5,37.2,5.9,35.6z M69.1,16.4l-3,24.3
	c-3.2-0.9-6.1-1.9-8.8-2.8l1.1-12.5c0.2-2.7-1.8-5.1-4.5-5.3c-0.1,0-0.3,0-0.4,0c0,0,0,0,0,0c-2.5,0-4.6,1.9-4.9,4.5L47.8,34
	c-3.4-1.6-6.5-3.3-9.4-5.1l1.1-8.4L53.7,7.7L54.5,7l0.9,0.6L69.1,16.4z M71.7,18l-2.9,23.4c8.8,2.5,18.8,4.8,27.3,5.7l1.7-12.3
	L71.7,18z M56.8,22.1c-0.3-0.3-0.6-0.6-0.9-0.8c-1.5-0.1-2.8,1-2.9,2.5l-1,12c0.1,0.1,0.3,0.1,0.4,0.2c1.7,0.7,3.5,1.3,4.4,1.7
	l1.1-12.4C57.9,24.1,57.5,23,56.8,22.1z M53.4,30.7c-0.3,0-0.6-0.3-0.6-0.6c0-0.3,0.3-0.6,0.6-0.6s0.6,0.3,0.6,0.6
	C54,30.5,53.7,30.7,53.4,30.7z M148.9,66.7l-8.2-14.8c-0.4,0-0.9,0.1-1.3,0.1s-0.9,0-1.4,0h-4.3v14.7h-7.3V28h12.1
	c4.2,0,7.8,1,10.8,2.9c3,1.9,4.5,4.9,4.5,9c0,2.4-0.6,4.5-1.8,6.2c-1.2,1.7-2.8,3.1-4.8,4l9.5,16.6H148.9z M138.3,34.1h-4.6V46h4.7
	c2.2,0,4-0.4,5.5-1.3c1.4-0.9,2.2-2.4,2.2-4.4c0-2.2-0.7-3.7-2.1-4.7C142.6,34.6,140.7,34.1,138.3,34.1z M186.1,35
	c-1.8-0.6-3.3-1-4.3-1.2c-1.1-0.2-2.4-0.4-3.9-0.4c-3.1,0-5.4,1.3-7.1,3.8c-1.7,2.5-2.5,5.9-2.5,10.3c0,3.8,0.7,7,2.1,9.7
	c1.4,2.7,3.8,4.1,7.1,4.1c1.6,0,3.2-0.2,4.6-0.5c1.4-0.3,2.7-0.8,3.9-1.3l2.8,5.5c-1.5,0.8-3.3,1.4-5.4,1.8
	c-2.1,0.5-3.9,0.7-5.5,0.7c-6,0-10.4-1.9-13.2-5.8c-2.7-3.9-4.1-8.6-4.1-14.2c0-6,1.5-10.8,4.5-14.6c3-3.8,7.4-5.7,13-5.7
	c1.1,0,2.7,0.2,4.7,0.6c2,0.4,3.9,1,5.5,1.9L186.1,35z M219.8,35c-1.8-0.6-3.3-1-4.3-1.2c-1.1-0.2-2.4-0.4-3.9-0.4
	c-3.1,0-5.4,1.3-7.1,3.8c-1.7,2.5-2.5,5.9-2.5,10.3c0,3.8,0.7,7,2.1,9.7c1.4,2.7,3.8,4.1,7.1,4.1c1.6,0,3.2-0.2,4.6-0.5
	c1.4-0.3,2.7-0.8,3.9-1.3l2.8,5.5c-1.5,0.8-3.3,1.4-5.4,1.8c-2.1,0.5-3.9,0.7-5.5,0.7c-6,0-10.4-1.9-13.2-5.8
	c-2.7-3.9-4.1-8.6-4.1-14.2c0-6,1.5-10.8,4.5-14.6c3-3.8,7.4-5.7,13-5.7c1.1,0,2.7,0.2,4.7,0.6c2,0.4,3.9,1,5.5,1.9L219.8,35z
	 M233,57.5c-0.1,0-0.5,0-1,0c-0.5,0-1.1-0.1-1.7-0.1c-0.6-0.1-1.1-0.2-1.6-0.3c-0.4-0.2-0.7-0.4-0.7-0.6c0-0.3,0.1-0.6,0.3-0.8
	c0.2-0.2,0.3-0.3,0.5-0.3c1.4,0,2.7,0,4.1,0c1.4,0,2.7,0,4,0c0.5,0,1,0,1.5,0c0.5,0,1,0,1.5-0.1c0,0,0.1,0.1,0.1,0.2
	c0,0.3-0.3,0.5-0.9,0.8c-0.6,0.3-1.3,0.5-2.2,0.7c-0.8,0.2-1.6,0.4-2.4,0.5C233.9,57.4,233.3,57.5,233,57.5z M258,67.5
	c-0.8,0-1.6-0.2-2.3-0.7c-0.7-0.5-1.3-1.1-1.7-1.8s-0.6-1.5-0.5-2.2c0.1-1.2,0.5-2.6,1.3-4.1c0.8-1.5,1.7-3,2.7-4.6s2.1-3,3.2-4.5
	c1.1-1.4,2-2.7,2.8-3.7c1.3-1.6,2.5-3.3,3.7-4.9s2.2-3.1,3-4.4c0.8-1.3,1.2-2.2,1.2-2.7c0-0.3-0.2-0.5-0.7-0.5c-1.1,0-2.5,0.3-4.2,1
	c-1.6,0.6-3.4,1.5-5.2,2.5c-1.8,1-3.5,2-5,3c-0.7,0.5-1.7,1.3-2.9,2.3c-1.2,1-2.4,2.2-3.7,3.5c-1.3,1.3-2.3,2.6-3.2,3.9
	c-0.9,1.3-1.3,2.5-1.3,3.6c0,0.8,0.2,1.4,0.6,1.8c0.1,0.1,0.2,0.2,0.2,0.3c0,0.2-0.1,0.3-0.3,0.3c-0.3,0-0.6-0.3-1-0.9
	c-0.4-0.6-0.7-1.3-1-2c-0.3-0.8-0.4-1.4-0.3-1.9c0.2-2,1.3-4.1,3.1-6.1c1.9-2.1,4.2-4,6.9-5.9c0.5-0.3,1.2-0.7,2.2-1.3
	c1-0.6,2.2-1.2,3.5-1.9c1.3-0.7,2.6-1.3,3.9-1.9c1.3-0.6,2.5-1.1,3.6-1.5c1.1-0.4,2-0.6,2.6-0.6c0.6,0,1.5,0.1,2.4,0.4
	c1,0.3,1.8,0.7,2.6,1.3c0.7,0.6,1.1,1.2,0.9,2c-0.2,1.1-0.7,2.3-1.6,3.5c-0.9,1.2-2,2.5-3.4,3.8c-1.3,1.3-2.7,2.8-4.2,4.3
	c-1.5,1.5-2.9,3.1-4.2,4.9c-1.3,1.7-2.5,3.6-3.4,5.6c-0.9,2-1.6,4.1-1.8,6.5c0,0.1,0,0.2,0,0.3c0,0.1,0,0.2,0,0.3
	c0,1.1,0.4,1.7,1.2,1.7c0.6,0,1.4-0.3,2.3-0.9c0.9-0.6,1.7-1.2,2.2-1.6c1.6-1.3,3.2-2.8,4.6-4.3c1.4-1.5,2.9-3,4.4-4.5
	c1.9-1.8,3.7-3.7,5.6-5.5c1.9-1.9,3.6-3.8,5.4-5.8c0.1-0.1,0.2-0.2,0.4-0.2c0.2,0,0.2,0,0.1,0.2c-0.6,0.9-1.5,2.1-2.7,3.6
	c-1.3,1.5-2.7,3.2-4.3,5c-1.6,1.8-3.3,3.6-5,5.4c-1.7,1.8-3.3,3.4-4.8,4.8c-1.5,1.4-2.8,2.5-3.8,3.3c-0.6,0.5-1.3,0.9-2,1.3
	C259.6,67.3,258.8,67.5,258,67.5z M272.2,73.2c-0.6,0-1.2-0.3-1.7-0.8c-0.5-0.5-0.9-1.1-1.1-1.8c-0.3-0.7-0.4-1.3-0.4-1.9
	c0-1.4,0.4-3.1,1.2-5.1c0.8-1.9,1.9-4,3.2-6.1c1.3-2.1,2.7-4.2,4.2-6.1c1.5-2,2.9-3.8,4.3-5.4c1.4-1.6,2.5-2.8,3.4-3.7
	c-0.2-0.2-0.3-0.5-0.3-0.8c0-0.5,0.3-0.9,0.8-1.4c0.5-0.5,1.1-0.9,1.7-1.3c0.6-0.4,1.1-0.8,1.4-1c0.3,0,0.8,0.1,1.4,0.3
	c0.6,0.2,1.1,0.4,1.6,0.7c0.5,0.3,0.7,0.7,0.7,1.1c0,0.2-0.1,0.5-0.2,0.7c-0.1,0.4-0.6,1-1.3,1.6c-0.7,0.7-1.4,1.3-2.2,2
	c-0.8,0.6-1.4,1.2-1.8,1.6c-1,1-2.2,2.2-3.6,3.7c-1.4,1.5-2.8,3.1-4.3,4.8c-1.5,1.7-2.8,3.5-4.1,5.4c-1.3,1.8-2.3,3.6-3.1,5.4
	c-0.8,1.7-1.2,3.4-1.2,4.8c0,0.7,0.1,1.3,0.4,1.9c0.3,0.5,0.8,0.8,1.6,0.8V73C272.7,73.1,272.4,73.2,272.2,73.2z M309.8,73.5
	c0,0-0.1-0.1-0.1-0.2c0-0.1,0-0.3,0.2-0.4c0.4-0.3,0.8-0.8,1.2-1.3c0.4-0.6,0.6-1.2,0.6-2c0-0.8-0.3-1.5-1-1.9
	c-0.6-0.4-1.5-0.7-2.6-0.9c-1.1-0.2-2.2-0.3-3.5-0.3c-1.3,0-2.7,0.1-4,0.2c-1.3,0.1-2.5,0.3-3.5,0.5c-1,0.2-1.7,0.3-2,0.4
	c-0.8,0.1-1.7,0.4-2.9,0.7c-1.2,0.3-2.4,0.4-3.6,0.4c-1.4,0-2.6-0.3-3.7-1c-1-0.7-1.5-2-1.4-4.1c0.1-0.6,0.4-1.3,1-1.8
	c0,0,0.1-0.1,0.2-0.1c0.3,0,0.4,0.1,0.4,0.5c0,0.2-0.1,0.4-0.2,0.5c-0.3,0.3-0.5,0.7-0.5,1.1c0,0.2,0.1,0.5,0.3,0.7
	c0.5,0.6,1.1,1.1,2,1.3c0.8,0.2,1.7,0.4,2.7,0.4c1.2,0,2.3-0.1,3.5-0.3s2.1-0.4,2.8-0.6c0.6-0.2,1.5-0.4,2.7-0.7
	c1.2-0.3,2.4-0.6,3.8-0.8c1.4-0.3,2.7-0.4,4.1-0.4c1.7,0,3.1,0.3,4.3,1c1.2,0.6,1.8,1.9,1.8,3.7c0,0.2,0,0.3,0,0.5
	c0,0.2,0,0.4-0.1,0.6c0.2,0.6,0.3,1,0.4,1.2c0.1,0.1,0.1,0.2,0.2,0.3c0,0,0,0.2-0.1,0.5c-0.1,0.6-0.3,1-0.7,1.1
	c-0.3,0.2-0.7,0.3-1.1,0.5c-0.2,0.1-0.3,0.2-0.5,0.4C310.3,73.4,310.1,73.5,309.8,73.5z M299.9,64.2c-0.6,0-1.2-0.3-1.7-0.8
	c-0.5-0.5-0.9-1.1-1.1-1.8c-0.3-0.7-0.4-1.3-0.4-1.8c0-1.3,0.3-2.8,1-4.5c0.7-1.7,1.5-3.5,2.6-5.3c1.1-1.9,2.3-3.7,3.6-5.6
	c1.3-1.8,2.6-3.6,3.9-5.2c1.3-1.6,2.5-3,3.5-4.1c-2.4,0.1-4.7,0.3-6.9,0.7c-2.2,0.4-3.9,1-5.1,1.7c-0.4,0.2-0.8,0.5-1,0.8
	c-0.3,0.3-0.4,0.6-0.4,1c0,0.9,0.2,1.8,0.7,2.7c0.4,0.8,1,1.6,1.8,2.4l0.1,0.2c0,0.1-0.1,0.2-0.3,0.2c-0.1,0-0.3,0-0.6-0.1
	c-0.6-0.3-1.2-0.9-1.8-1.7c-0.6-0.8-1.1-1.7-1.5-2.6c-0.4-0.9-0.6-1.8-0.6-2.6c0-1,0.6-1.9,1.9-2.6c1.3-0.7,2.9-1.2,4.9-1.6
	s4.2-0.6,6.6-0.6c1.3,0,2.5,0.1,3.6,0.2c-0.2-0.5,0-1,0.5-1.5c0.5-0.5,1.1-1,1.7-1.5c0.7-0.5,1.2-0.8,1.6-1.1c0.3,0,0.8,0.1,1.4,0.3
	s1.1,0.4,1.6,0.7c0.5,0.3,0.7,0.7,0.7,1.1c0,0.2,0,0.4-0.1,0.6c-0.1,0.3-0.3,0.6-0.7,1c-0.3,0.4-0.7,0.8-1.2,1.2
	c0.9,0.2,1.7,0.4,2.5,0.7c0.8,0.2,1.6,0.5,2.3,0.8c0.1,0,0.2,0.1,0.2,0.2c0,0.1-0.1,0.2-0.3,0.3c-0.2,0.1-0.4,0.1-0.6,0.1
	c-0.8-0.2-1.7-0.3-2.7-0.4c-1-0.1-1.9-0.2-2.9-0.2c-0.4,0.3-0.7,0.6-1.1,0.9c-0.4,0.3-0.6,0.6-0.8,0.8c-1,1-2.2,2.2-3.5,3.7
	c-1.4,1.5-2.8,3.1-4.3,4.8c-1.5,1.7-2.8,3.5-4.1,5.4c-1.3,1.8-2.3,3.6-3.1,5.4c-0.8,1.7-1.2,3.4-1.2,4.8c0,0.7,0.1,1.3,0.3,1.8
	c0.2,0.5,0.8,0.8,1.6,0.8V64C300.4,64.1,300.1,64.2,299.9,64.2z"/>
</svg>
